<svg width="36" height="30" viewBox="0 0 36 30" fill="none" xmlns="http://www.w3.org/2000/svg">
<path d="M14.694 27.4897C14.648 27.3673 14.6321 27.2632 14.6477 27.179C14.6632 27.0954 14.6098 27.0261 14.4871 26.9727C14.3645 26.9193 14.3033 26.8769 14.3033 26.8467C14.3033 26.8161 14.2154 26.793 14.0392 26.7779C13.8631 26.7625 13.7752 26.7547 13.7752 26.7547H13.4769H13.2244H6.6121C5.60192 26.7547 4.73705 26.3954 4.01757 25.6755C3.29825 24.9561 2.93863 24.0915 2.93863 23.0814V6.91805C2.93863 5.90787 3.29817 5.04332 4.01757 4.32392C4.73705 3.60444 5.60192 3.24458 6.6121 3.24458H13.959C14.158 3.24458 14.3145 3.19521 14.4295 3.09549C14.5441 2.99602 14.6205 2.84669 14.659 2.64774C14.6972 2.44879 14.7203 2.26914 14.728 2.10839C14.7356 1.9478 14.7319 1.74483 14.7165 1.49996C14.7013 1.25518 14.6936 1.10215 14.6936 1.04063C14.6936 0.841682 14.6209 0.669834 14.4755 0.52412C14.3301 0.379051 14.158 0.306274 13.959 0.306274H6.6121C4.79084 0.306274 3.23335 0.952977 1.93987 2.2463C0.646703 3.53963 0 5.09688 0 6.91829V23.0814C0 24.9026 0.646703 26.4603 1.93987 27.7531C3.23335 29.0471 4.79084 29.6938 6.6121 29.6938H13.9593C14.1583 29.6938 14.3149 29.6438 14.4299 29.5447C14.5445 29.445 14.6209 29.2959 14.6593 29.0967C14.6976 28.898 14.7206 28.7174 14.7284 28.5573C14.7359 28.3966 14.7322 28.194 14.7168 27.9492C14.7014 27.7041 14.694 27.5511 14.694 27.4897Z" fill="white"/>
<path d="M35.5637 13.9668L23.074 1.4767C22.7834 1.18624 22.4389 1.04053 22.0409 1.04053C21.6429 1.04053 21.2984 1.18624 21.0075 1.4767C20.7166 1.76757 20.5713 2.11231 20.5713 2.51004V9.1223H10.2857C9.88746 9.1223 9.5432 9.26801 9.25234 9.55848C8.96147 9.84934 8.81616 10.1938 8.81616 10.5918V19.4083C8.81616 19.8062 8.96147 20.1507 9.25234 20.4414C9.54352 20.7317 9.8877 20.8778 10.2857 20.8778H20.5714V27.49C20.5714 27.8876 20.7167 28.2324 21.0076 28.5231C21.2984 28.8139 21.6429 28.9596 22.041 28.9596C22.4389 28.9596 22.7834 28.8139 23.0741 28.5231L35.5637 16.0335C35.8546 15.7424 36 15.3984 36 15.0004C36 14.6025 35.8546 14.2576 35.5637 13.9668Z" fill="white"/>
</svg>
