<svg width="26" height="36" viewBox="0 0 26 36" fill="none" xmlns="http://www.w3.org/2000/svg">
<path d="M4.82313 22.3165C5.74559 23.0979 6.35727 24.1565 6.57827 25.3122H11.9452V17.7955C10.1276 17.326 8.78103 15.6724 8.78103 13.7101H10.8905C10.8905 14.8732 11.8368 15.8195 12.9999 15.8195C14.1631 15.8195 15.1094 14.8732 15.1094 13.7101H17.2189C17.2189 15.6723 15.8723 17.326 14.0547 17.7955V25.3121H19.4228C19.6462 24.1568 20.2637 23.0928 21.1949 22.301C24.0304 19.8899 25.6567 16.3742 25.6567 12.6554C25.6567 1.30985 11.82 -4.262 3.94025 3.83312C-1.20233 9.11646 -0.762715 17.5847 4.82313 22.3165Z" fill="white"/>
<path d="M12.9999 36.0001C15.3262 36.0001 17.2188 34.1075 17.2188 31.7811H8.78101C8.78101 34.1075 10.6736 36.0001 12.9999 36.0001Z" fill="white"/>
<path d="M6.67163 27.4215H19.3284V29.6716H6.67163V27.4215Z" fill="white"/>
</svg>
