<svg width="30" height="36" viewBox="0 0 30 36" fill="none" xmlns="http://www.w3.org/2000/svg">
<path d="M27.8537 0C27.3014 0 26.8537 0.447715 26.8537 1V1.19509C26.8537 1.74737 26.4059 2.19509 25.8537 2.19509H4.14639C3.59411 2.19509 3.14639 1.74737 3.14639 1.19509V1C3.14639 0.447715 2.69868 0 2.14639 0H1.51221C0.959923 0 0.512207 0.447715 0.512207 1V35C0.512207 35.5523 0.959922 36 1.51221 36H2.14632C2.69861 36 3.14632 35.5523 3.14632 35V34.8049C3.14632 34.2526 3.59404 33.8049 4.14632 33.8049H25.8537C26.4059 33.8049 26.8537 34.2526 26.8537 34.8049V35C26.8537 35.5523 27.3014 36 27.8537 36H28.4878C29.0401 36 29.4878 35.5523 29.4878 35V1C29.4878 0.447716 29.0401 0 28.4878 0H27.8537ZM26.8537 24.0244C26.8537 24.5767 26.406 25.0244 25.8537 25.0244H4.14639C3.59411 25.0244 3.14639 24.5766 3.14639 24.0244V23.3902C3.14639 22.838 3.59411 22.3902 4.14639 22.3902H25.8537C26.406 22.3902 26.8537 22.838 26.8537 23.3903L26.8537 24.0244ZM26.8537 12.6098C26.8537 13.1621 26.406 13.6098 25.8537 13.6098H4.14639C3.59411 13.6098 3.14639 13.162 3.14639 12.6098V11.9756C3.14639 11.4234 3.59411 10.9756 4.14639 10.9756H25.8537C26.406 10.9756 26.8537 11.4234 26.8537 11.9757L26.8537 12.6098Z" fill="white"/>
</svg>
